<svg xmlns="http://www.w3.org/2000/svg" viewBox="0 0 99.15 20.5"><defs><style>.cls-1{fill:#fff;}.cls-2,.cls-3{fill:#ee7622;}.cls-2{opacity:0.5;}</style></defs><title>WMCA - Landscape - White text - Web</title><g id="Layer_2" data-name="Layer 2"><g id="Layer_1-2" data-name="Layer 1"><path class="cls-1" d="M29.38,9.4,30.7,5.3,32,9.4h1.15l1.59-5.76H33.61l-1,4-1.28-4H30.13l-1.28,4-1.05-4H26.61l1.6,5.76Zm9.16-1.15L37.64,8a.88.88,0,0,1-.91.61,1,1,0,0,1-1-.91h2.86s0-.18,0-.33a1.86,1.86,0,0,0-2-2.07,2,2,0,0,0-2,2.1,2,2,0,0,0,2.06,2.14A1.81,1.81,0,0,0,38.54,8.25Zm-1.9-2.09a.81.81,0,0,1,.89.78H35.74A.87.87,0,0,1,36.64,6.16Zm8.52,3.2v-.9a1.37,1.37,0,0,1-.33,0c-.31,0-.47-.11-.47-.46V6.36h.8v-1h-.8V4.21h-1v.56a.57.57,0,0,1-.61.63h-.21v1h.73V8.22a1.15,1.15,0,0,0,1.26,1.23A1.67,1.67,0,0,0,45.16,9.36Zm-4.48-.67A.66.66,0,0,1,40,8.08l-.93.2a1.51,1.51,0,0,0,1.67,1.24A1.38,1.38,0,0,0,42.24,8.2c0-.58-.4-1.06-1.19-1.22l-.56-.12c-.22-.05-.37-.17-.37-.36a.46.46,0,0,1,.51-.4.61.61,0,0,1,.66.54l.9-.21a1.41,1.41,0,0,0-1.57-1.15,1.39,1.39,0,0,0-1.49,1.31c0,.56.35,1,1.12,1.19l.53.12c.31.07.43.21.43.39S41,8.69,40.68,8.69Zm11.73-5-1.32,4.1-1.31-4.1H48.62L47,9.39h1.15l1-4,1.28,4h1.16l1.27-4,1.06,4h1.18l-1.6-5.75ZM56.3,4.75a.67.67,0,1,0,0-1.33.67.67,0,0,0,0,1.33ZM55.77,9.4h1.08v-4H55.77Zm4.91-.47a2.39,2.39,0,0,0,0,.47h1a6.94,6.94,0,0,1,0-.73V3.52H60.66V5.8a1.2,1.2,0,0,0-1.13-.49,1.94,1.94,0,0,0-1.91,2.08,2,2,0,0,0,1.94,2.1A1.23,1.23,0,0,0,60.68,8.93Zm-1-.4a1,1,0,0,1-1-1.14,1,1,0,0,1,1-1.12,1,1,0,0,1,1,1.11A1,1,0,0,1,59.69,8.53Zm3.12.87h1.08V3.52H62.81ZM34.68,13.15a2,2,0,0,0-2,2.07,2,2,0,1,0,4,0A2,2,0,0,0,34.68,13.15Zm0,3.46a1.24,1.24,0,0,1-1.22-1.39,1.23,1.23,0,1,1,2.44,0A1.24,1.24,0,0,1,34.68,16.61Zm14.5.56h.75v-3.9h-.75Zm-7.22-4a1.39,1.39,0,0,0-1.3.74,1.24,1.24,0,0,0-1.17-.74,1.36,1.36,0,0,0-1.19.64v-.52h-.73v3.9h.76V14.82a.9.9,0,0,1,.91-1,.78.78,0,0,1,.82.89v2.45h.77V14.81a.91.91,0,0,1,.9-1,.78.78,0,0,1,.82.89v2.45h.76V14.64A1.35,1.35,0,0,0,42,13.15Zm7.59-1.91a.55.55,0,1,0,.55.55A.54.54,0,0,0,49.55,11.24Zm32.11-3c0-.58-.4-1.06-1.19-1.22l-.56-.12c-.22-.05-.37-.17-.37-.36a.46.46,0,0,1,.51-.4.61.61,0,0,1,.66.54l.9-.21A1.41,1.41,0,0,0,80,5.28a1.39,1.39,0,0,0-1.49,1.31c0,.56.35,1,1.12,1.19l.53.12c.31.07.43.21.43.39s-.17.4-.53.4a.66.66,0,0,1-.73-.61l-.93.2a1.51,1.51,0,0,0,1.67,1.24A1.38,1.38,0,0,0,81.66,8.2ZM29.74,16.56a2.07,2.07,0,0,1-2-2.27,2.06,2.06,0,0,1,2-2.26,1.7,1.7,0,0,1,1.79,1.35l.74-.26a2.44,2.44,0,0,0-2.53-1.82,2.85,2.85,0,0,0-2.86,3,2.83,2.83,0,0,0,2.86,3,2.51,2.51,0,0,0,2.54-1.85l-.71-.26A1.82,1.82,0,0,1,29.74,16.56Zm16.75-3.41a1.43,1.43,0,0,0-1.29.67V11.3h-.75v5.87h.75V16.6a1.38,1.38,0,0,0,1.27.68,1.86,1.86,0,0,0,1.82-2.08A1.82,1.82,0,0,0,46.49,13.15Zm-.14,3.45a1.24,1.24,0,0,1-1.16-1.4,1.21,1.21,0,0,1,1.16-1.37c.71,0,1.16.53,1.16,1.37S47.05,16.6,46.35,16.6Zm17.07-5.3h-.75v2.52a1.19,1.19,0,0,0-1.19-.66,1.92,1.92,0,0,0-1.86,2.05,1.89,1.89,0,0,0,1.86,2.07,1.3,1.3,0,0,0,1.2-.7v.06a2.67,2.67,0,0,0,0,.53h.73c0-.06,0-.35,0-.72Zm-1.87,5.3c-.73,0-1.15-.59-1.15-1.39a1.21,1.21,0,0,1,1.16-1.37c.69,0,1.12.55,1.12,1.35S62.25,16.6,61.55,16.6Zm8.76-9.5a.76.76,0,0,1,.75-.83.7.7,0,0,1,.74.8V9.4h1.08V6.88A1.41,1.41,0,0,0,71.43,5.3a1.3,1.3,0,0,0-1.15.6V5.4h-1v4h1.08ZM53.1,13.15a1.33,1.33,0,0,0-1.2.68v-.56h-.75v3.9h.76V14.92c0-.6.31-1.08.91-1.08s.91.44.91,1v2.34h.76V14.7A1.37,1.37,0,0,0,53.1,13.15ZM67.24,8.92a3.32,3.32,0,0,0,0,.48h1a5.6,5.6,0,0,1,0-.64v-2c0-.8-.48-1.52-1.74-1.52A1.58,1.58,0,0,0,64.78,6.6l1,.2a.72.72,0,0,1,.77-.65c.45,0,.67.23.67.52,0,.14-.07.25-.3.28l-1,.15a1.23,1.23,0,0,0-1.2,1.21,1.27,1.27,0,0,0,1.38,1.2A1.33,1.33,0,0,0,67.24,8.92Zm-1.47-.68c0-.31.22-.46.5-.5l.9-.14v.18a.81.81,0,0,1-.88.93A.47.47,0,0,1,65.77,8.24Zm-8.59,4.91a2,2,0,0,0-1.87,2.06,2,2,0,0,0,2,2.08A1.76,1.76,0,0,0,59,16.06l-.66-.23a1.05,1.05,0,0,1-1.09.79,1.16,1.16,0,0,1-1.18-1.18H59a1.47,1.47,0,0,0,0-.25A1.82,1.82,0,0,0,57.18,13.15Zm-1,1.67a1,1,0,0,1,1.06-1,1,1,0,0,1,1.07,1ZM76.66,8.93a2.55,2.55,0,0,0,0,.47h1c0-.17,0-.46,0-.73V3.52H76.63V5.8a1.18,1.18,0,0,0-1.12-.49,2,2,0,0,0-1.92,2.08,2,2,0,0,0,2,2.1A1.25,1.25,0,0,0,76.66,8.93Zm-1-.4a1,1,0,0,1-1-1.14,1,1,0,0,1,1-1.12,1,1,0,0,1,1,1.11A1,1,0,0,1,75.67,8.53Zm-7.75,2.89-2.29,5.75h.85l.61-1.6h2.55l.63,1.6h.86l-2.29-5.75Zm-.54,3.41,1-2.58,1,2.58Zm13.45-1.68a1.39,1.39,0,0,0-1.18.57V11.3h-.76v5.87h.76V14.88c0-.58.32-1,.91-1s.91.44.91,1v2.34h.76V14.7A1.38,1.38,0,0,0,80.83,13.15Zm4.21,0a2,2,0,0,0-2,2.07,2,2,0,1,0,4,0A2,2,0,0,0,85,13.15Zm0,3.46a1.24,1.24,0,0,1-1.22-1.39,1.23,1.23,0,1,1,2.44,0A1.24,1.24,0,0,1,85,16.61ZM77.11,12h-.7v.64a.55.55,0,0,1-.6.6H75.6V14h.75V16.1a1,1,0,0,0,1.08,1.11,1.83,1.83,0,0,0,.52-.07v-.65a1.26,1.26,0,0,1-.3,0c-.39,0-.54-.18-.54-.53V14H78v-.69h-.84ZM88.68,14v-.68h-.75v3.9h.76v-2c0-.86.43-1.21,1.07-1.21l.34,0v-.81a1.25,1.25,0,0,0-1.42.72Zm2.52-2.71a.55.55,0,1,0,.55.55A.54.54,0,0,0,91.2,11.24Zm-.37,5.93h.75v-3.9h-.75Zm3-5.14h-.7v.64a.54.54,0,0,1-.6.6h-.21V14h.75V16.1a1,1,0,0,0,1.09,1.11,1.9,1.9,0,0,0,.52-.07v-.65a1.39,1.39,0,0,1-.3,0c-.4,0-.55-.18-.55-.53V14h.85v-.69h-.85ZM74.87,13.27h-.76v2.35a.89.89,0,0,1-.93,1c-.64,0-.88-.47-.88-1V13.27h-.77v2.46A1.44,1.44,0,0,0,73,17.29a1.27,1.27,0,0,0,1.16-.59,3,3,0,0,0,0,.47h.73a5.72,5.72,0,0,1,0-.72Zm23.46,0L97.17,16,96,13.27h-.88l1.68,3.47-1,2.06h.83l2.54-5.53Z"/><path class="cls-2" d="M7.34,0a3.36,3.36,0,0,0-2.9,1.67h0v4.6l6.89-4L7.33,0M22.19,8.58h0l-4-2.29v8l4-2.3h0A3.32,3.32,0,0,0,22.19,8.58ZM4.43,18.83a3.37,3.37,0,0,0,2.9,1.67l4-2.3-6.89-4v4.6"/><path class="cls-3" d="M18.2,1.67A3.36,3.36,0,0,0,15.3,0h-8L22.19,8.57ZM15.3,20.5a3.36,3.36,0,0,0,2.9-1.67l4-6.9L7.33,20.5ZM.45,11.92l4,6.91V1.67l-4,6.91A3.32,3.32,0,0,0,.45,11.92Z"/></g></g></svg>